# xmcd CD database file
#
# Track frame offsets:
#	187
#	10980
#	26392
#	40347
#	54480
#	69012
#	89542
#	105230
#	123620
#	143592
#	158962
#	199182
#	223497
#	238460
#
# Disc length: 3376 seconds
#
# Revision: 1
# Processed by: cddbd v1.5.2PL0 Copyright (c) Steve Scherf et al.
# Submitted via: CDex 1.51
#
DISCID=c50d2e0e
DTITLE=Louis Armstrong - The greatest Jass artist series
DYEAR=1991
DGENRE=Jazz
TTITLE0=Hello, Dolly!
TTITLE1=La vie en rose
TTITLE2=C'est si bon
TTITLE3=Kiss of fire
TTITLE4=Only you
TTITLE5=On the sunny side of street
TTITLE6=I get ideas
TTITLE7=When you're smiling
TTITLE8=When the saints go marching in
TTITLE9=St. James infirmary
TTITLE10=St. Louis blues
TTITLE11=Hesitating blues
TTITLE12=West end blues
TTITLE13=Basin street blues
EXTD=YEAR: 1991
EXTT0=
EXTT1=
EXTT2=
EXTT3=
EXTT4=
EXTT5=
EXTT6=
EXTT7=
EXTT8=
EXTT9=
EXTT10=
EXTT11=
EXTT12=
EXTT13=
PLAYORDER=
